<?xml version="1.0" encoding="utf-8"?>
<!-- Generator: Adobe Illustrator 28.1.0, SVG Export Plug-In . SVG Version: 6.00 Build 0)  -->
<svg version="1.1" id="_レイヤー_1" xmlns="http://www.w3.org/2000/svg" xmlns:xlink="http://www.w3.org/1999/xlink" x="0px"
	 y="0px" viewBox="0 0 124.1 13.6" style="enable-background:new 0 0 124.1 13.6;" xml:space="preserve">
<path d="M3.8,4.5L8.1,11H6.6L2.9,5.4L1.3,7.2V11H0V0.2h1.3v5.5l4.9-5.5h1.5L3.8,4.5L3.8,4.5z"/>
<path d="M17.3,11H16l-1-3.4h-3.9L10,11H8.8l3.5-10.8h1.6L17.3,11z M13.9,3.9c-0.3-0.9-0.5-1.7-0.8-2.8h-0.2c-0.2,1-0.5,1.8-0.8,2.8
	l-0.8,2.6h3.3C14.7,6.6,13.9,4,13.9,3.9z"/>
<path d="M22.4,0.2c3.2,0,5.1,1.7,5.1,5.4S25.4,11,22.2,11h-3.1V0.2H22.4L22.4,0.2z M20.3,10h1.8c2.4,0,4-1.4,4-4.4s-1.5-4.3-3.9-4.3
	h-1.9L20.3,10L20.3,10z"/>
<path d="M38,5.6c0,3.5-1.9,5.6-4.5,5.6S29,9.2,29,5.6S30.9,0,33.5,0S38,2,38,5.6z M30.4,5.6c0,3,1.3,4.5,3.1,4.5s3.1-1.6,3.1-4.5
	s-1.3-4.5-3.1-4.5S30.4,2.6,30.4,5.6z"/>
<path d="M43.9,4.5l4.3,6.5h-1.5L43,5.4l-1.7,1.7V11h-1.3V0.2h1.3v5.5l4.9-5.5h1.5L43.9,4.5L43.9,4.5z"/>
<path d="M58,11h-1.3l-1-3.4h-3.8L50.7,11h-1.2L53,0.2h1.6L58,11z M54.6,3.9c-0.3-0.9-0.5-1.7-0.8-2.8h-0.2c-0.2,1-0.5,1.8-0.8,2.8
	l-0.8,2.6h3.3C55.4,6.6,54.6,4,54.6,3.9z"/>
<path d="M68.8,11h-1.7l-1.3-6.1c-0.3-1.3-0.4-2.3-0.7-3.5h-0.2c-0.2,1.2-0.4,2.3-0.6,3.5L62.9,11h-1.7L58.8,0.2h1.3l1.2,6
	c0.2,1.2,0.4,2.3,0.6,3.5h0.2c0.2-1.2,0.4-2.3,0.7-3.5l1.3-6.1h1.8l1.3,6.2c0.2,1.1,0.4,2.1,0.7,3.4h0.2c0.2-1.3,0.4-2.2,0.6-3.4
	l1.3-6.1h1.3C71.3,0.2,68.8,11,68.8,11z"/>
<path d="M80.9,11h-1.3l-1-3.4h-3.8L73.6,11h-1.2l3.5-10.8h1.6L80.9,11z M77.5,3.9C77.2,3,77,2.2,76.7,1.2h-0.2
	c-0.2,1-0.5,1.8-0.8,2.8l-0.8,2.6h3.3C78.3,6.6,77.5,4,77.5,3.9z"/>
<path d="M93.1,3.3c-0.4-1.4-1.3-2.3-2.6-2.3c-1.9,0-3.2,1.6-3.2,4.5s1.2,4.5,3.2,4.5c1.8,0,2.7-1.6,2.8-3.5h-2.9v-1h4.1V11h-0.9
	l-0.2-1.7c-0.6,1.2-1.7,1.9-3,1.9c-2.6,0-4.4-2-4.4-5.6S87.8,0,90.4,0c2,0,3.4,1.2,3.9,3L93.1,3.3L93.1,3.3z"/>
<path d="M100.2,4.5c-0.9,0-1.8,0.7-2.3,2.2V11h-1.2V3.5h1.1v1.9c0.6-1.4,1.4-2.1,2.4-2.1L100.2,4.5L100.2,4.5z"/>
<path d="M107.8,7.2c0,2.4-1.3,3.9-3.2,3.9s-3.2-1.5-3.2-3.9s1.3-3.9,3.2-3.9S107.8,4.8,107.8,7.2z M102.5,7.3c0,1.9,0.8,3,2,3
	s2-1,2-3s-0.8-3-2-3S102.5,5.3,102.5,7.3z"/>
<path d="M115.5,11h-1.1V9.6c-0.6,1-1.6,1.6-2.6,1.6c-1.2,0-2.1-0.7-2.1-2.1V3.5h1.2v5.2c0,1,0.5,1.4,1.3,1.4c0.8,0,1.6-0.6,2.2-1.5
	V3.5h1.2C115.5,3.5,115.5,11,115.5,11z"/>
<path d="M119,4.7c0.5-0.9,1.4-1.3,2.2-1.3c1.7,0,2.9,1.4,2.9,3.9s-1.3,3.9-3,3.9c-0.9,0-1.6-0.4-2.1-1.3v3.8h-1.2V3.5h1.1L119,4.7
	L119,4.7z M119.1,8.8c0.5,1,1.1,1.4,1.8,1.4c1.1,0,2-1,2-3s-0.8-2.9-1.9-2.9c-0.8,0-1.4,0.4-1.9,1.4V8.8L119.1,8.8z"/>
</svg>
